<svg width="23" height="25" viewBox="0 0 23 25" fill="none" xmlns="http://www.w3.org/2000/svg">
                <path fill-rule="evenodd" clip-rule="evenodd"
                    d="M1.73495 8.76966L2.79527 21.2604C2.8859 22.6634 4.03624 23.7631 5.44192 23.7905H17.4372C18.8424 23.7624 19.9919 22.6628 20.0824 21.2604L21.1428 8.76966C21.2245 8.01116 20.9851 7.25306 20.4826 6.67907C19.98 6.10508 19.2601 5.76757 18.4975 5.74829H4.38021C3.61755 5.76757 2.89776 6.10508 2.39522 6.67907C1.89268 7.25306 1.65326 8.01116 1.73495 8.76966Z"
                    stroke="white" stroke-width="2" stroke-linecap="round" stroke-linejoin="round" />
                <path
                    d="M17.2674 3.4272C17.008 3.94021 17.2135 4.56639 17.7265 4.82582C18.2396 5.08524 18.8658 4.87968 19.1252 4.36667L17.2674 3.4272ZM16.6779 1.12122L16.7834 0.0856796C16.7485 0.0821128 16.7132 0.0803223 16.6779 0.0803223V1.12122ZM6.19962 1.12122V0.0803223C6.16438 0.0803223 6.12917 0.0821128 6.09413 0.0856796L6.19962 1.12122ZM3.75242 4.36667C4.01185 4.87968 4.63803 5.08524 5.15103 4.82582C5.66404 4.56639 5.8696 3.94021 5.61018 3.4272L3.75242 4.36667ZM9.01002 13.1036C9.01002 12.5287 8.54398 12.0627 7.96913 12.0627C7.39427 12.0627 6.92825 12.5287 6.92825 13.1036H9.01002ZM15.9493 13.1036C15.9493 12.5287 15.4833 12.0627 14.9084 12.0627C14.3336 12.0627 13.8675 12.5287 13.8675 13.1036H15.9493ZM19.1252 4.36667C19.5651 3.49655 19.5485 2.46554 19.0806 1.61011L17.2542 2.60914C17.393 2.86301 17.398 3.16898 17.2674 3.4272L19.1252 4.36667ZM19.0806 1.61011C18.6126 0.754656 17.7535 0.184509 16.7834 0.0856796L16.5725 2.15676C16.8603 2.18608 17.1153 2.35529 17.2542 2.60914L19.0806 1.61011ZM16.6779 0.0803223H6.19962V2.16211H16.6779V0.0803223ZM6.09413 0.0856796C5.12408 0.184509 4.26493 0.754656 3.797 1.61011L5.62341 2.60914C5.76226 2.35529 6.01724 2.18608 6.30511 2.15676L6.09413 0.0856796ZM3.797 1.61011C3.32907 2.46554 3.3124 3.49655 3.75242 4.36667L5.61018 3.4272C5.4796 3.16898 5.48454 2.86301 5.62341 2.60914L3.797 1.61011ZM6.92825 13.1036V13.7975H9.01002V13.1036H6.92825ZM6.92825 13.7975C6.92825 16.2886 8.94771 18.308 11.4388 18.308V16.2263C10.0974 16.2263 9.01002 15.1389 9.01002 13.7975H6.92825ZM11.4388 18.308C13.9298 18.308 15.9493 16.2886 15.9493 13.7975H13.8675C13.8675 15.1389 12.7801 16.2263 11.4388 16.2263V18.308ZM15.9493 13.7975V13.1036H13.8675V13.7975H15.9493Z"
                    fill="white" />
            </svg>